PathFileType	4	(X/Y/Z)	Run_500 02
DataRate	CameraRate	NumFrames	NumMarkers	Units	OrigDataRate	OrigDataStartFrame	OrigNumFrames
120	120	5	42	mm	120	82	128
Frame#	Time	LASI			RASI			LPSI			RPSI			RTH1			RTH2			RTH3			LTH1			LTH2			LTH3			RTB1			RTB2			RTB3			LTB1			LTB2			LTB3			RCAL			RTOE			RMT5			LCAL			LTOE			LMT5			LACR			RACR			CLAV			C7			RUA1			RUA2			RUA3			RLEL			RMEL			LUA1			LUA2			LUA3			LLEL			LMEL			RFAsuperior			RFAradius			RFAulna			LFAsuperior			LFAradius			LFAulna			
		X1	Y1	Z1	X2	Y2	Z2	X3	Y3	Z3	X4	Y4	Z4	X5	Y5	Z5	X6	Y6	Z6	X7	Y7	Z7	X8	Y8	Z8	X9	Y9	Z9	X10	Y10	Z10	X11	Y11	Z11	X12	Y12	Z12	X13	Y13	Z13	X14	Y14	Z14	X15	Y15	Z15	X16	Y16	Z16	X17	Y17	Z17	X18	Y18	Z18	X19	Y19	Z19	X20	Y20	Z20	X21	Y21	Z21	X22	Y22	Z22	X23	Y23	Z23	X24	Y24	Z24	X25	Y25	Z25	X26	Y26	Z26	X27	Y27	Z27	X28	Y28	Z28	X29	Y29	Z29	X30	Y30	Z30	X31	Y31	Z31	X32	Y32	Z32	X33	Y33	Z33	X34	Y34	Z34	X35	Y35	Z35	X36	Y36	Z36	X37	Y37	Z37	X38	Y38	Z38	X39	Y39	Z39	X40	Y40	Z40	X41	Y41	Z41	X42	Y42	Z42	

82	0.775	807.095115	936.832464	-495.77531	771.118233	964.574889	-254.262001	629.152198	975.690646	-444.713099	613.02898	982.981502	-358.446393	777.392507	798.378741	-209.557994	884.02955	715.6003040000001	-239.761008	858.8318389999999	571.677248	-241.878336	767.461605	789.973058	-538.507715	806.969771	676.146603	-532.00284	734.116844	546.07673	-535.273893	919.3460669999999	376.240138	-317.504492	869.986356	320.26746	-262.220894	849.276794	208.229518	-336.719176	619.992971	458.434901	-457.23621	544.24726	545.128709	-508.791935	473.385714	578.051749	-435.537885	693.513534	103.335611	-339.910764	912.10195	65.7561	-346.167404	877.509979	65.081979	-253.523001	434.09175	731.140276	-442.798611	306.360077	554.9768780000001	-419.62542	290.105123	590.315272	-504.636769	840.852356	1398.484155	-543.563255	767.874188	1391.499609	-174.657117	896.0029060000001	1338.900468	-314.562296	782.071165	1449.472056	-363.482037	716.108854	1301.149142	-101.858836	725.778917	1236.861984	-80.02770700000001	617.722273	1238.960373	-71.92590800000001	624.924989	1175.719077	-9.267849999999999	594.3973549999999	1125.550386	-77.452843	795.883601	1345.634669	-605.52925	712.1435320000001	1314.154888	-605.860598	759.342763	1271.176143	-655.038831	703.5428879999999	1186.336798	-712.138715	632.635013	1170.32674	-659.902341	706.656321	1160.592096	-1.053423	867.089957	1118.625111	-30.558109	832.275339	1064.225539	-2.567979	761.007684	1149.980533	-684.174756	850.319747	1075.489723	-547.027043	828.224442	1025.13686	-588.660629	
83	0.7833329999999999	804.396218	933.702974	-494.603026	767.666007	965.641164	-250.579051	627.490391	977.337143	-446.764363	611.339482	984.5366760000001	-360.436513	770.412779	795.891833	-209.001577	872.314702	707.046225	-237.725972	840.127886	564.229137	-242.57938	771.34801	789.398359	-537.530216	819.307265	678.052066	-531.000093	757.0991739999999	544.6868930000001	-535.300919	894.6890509999999	366.710789	-315.504662	840.3622360000001	313.483302	-261.958018	814.787098	203.497104	-336.913783	650.283327	456.930166	-455.715922	574.945636	540.763239	-510.097933	502.221987	573.616786	-437.092826	653.436546	104.119915	-339.672258	871.677554	64.414148	-345.910215	836.673037	64.295002	-253.304879	456.487233	728.169578	-447.215726	336.740829	547.059657	-421.005511	321.378917	578.33545	-507.421703	836.313219	1397.056066	-544.175024	770.043006	1388.546515	-172.524042	896.425565	1335.815654	-316.137746	782.703358	1448.743121	-361.420853	721.5044329999999	1293.466438	-102.277064	735.018002	1229.373374	-81.088696	627.512615	1225.332921	-71.937061	641.161233	1161.816308	-9.5975	610.56909	1110.214214	-76.38700300000001	788.792017	1344.754456	-604.492345	704.270426	1312.510218	-598.809538	748.590021	1271.552585	-651.772285	689.945867	1188.121546	-706.711931	622.365863	1170.269059	-651.494658	723.927633	1152.115418	-4.896477	884.676614	1119.806908	-39.821504	853.886335	1063.939523	-10.092762	747.956365	1149.75922	-681.087395	840.566975	1063.751956	-553.229292	816.765341	1017.035477	-598.580109	
84	0.791667	801.863954	932.9263120000001	-494.644062	764.266736	966.915712	-247.158931	625.860627	979.528319	-447.391804	609.557622	986.798218	-360.900251	761.835735	792.7553349999999	-208.562544	858.186592	696.896972	-235.076479	818.1416809999999	556.418401	-243.342129	774.493529	790.190273	-537.001661	833.440426	682.526552	-529.24464	782.113238	546.6525349999999	-535.544981	866.640329	355.816849	-314.541375	808.574992	304.816929	-262.362072	777.852683	197.871513	-337.345463	681.105952	456.881594	-453.556269	605.596896	536.323295	-511.187026	529.786171	567.9930419999999	-438.459317	612.759835	104.798533	-339.394773	830.48951	62.629148	-344.590799	795.401071	63.581045	-252.934818	474.40119	722.58101	-452.230248	366.558011	535.042335	-421.834145	351.471023	561.740869	-509.402662	831.2303910000001	1397.332695	-544.384762	772.857829	1386.775086	-171.407532	896.5058759999999	1334.877573	-317.868423	783.094233	1448.878599	-359.97648	727.555217	1288.102976	-103.847638	744.623509	1224.396287	-83.51436099999999	638.151028	1213.536831	-74.639341	657.735596	1150.029502	-11.874425	628.197717	1097.410253	-77.929525	781.144165	1345.728671	-603.345193	696.552135	1312.210105	-592.01332	737.849711	1273.554238	-648.547067	677.184679	1191.742675	-700.909861	612.146349	1171.367385	-643.195418	741.2186809999999	1145.27432	-10.077078	902.230891	1123.590755	-50.822197	875.730959	1066.105921	-20.13002	735.94616	1152.137241	-677.475622	830.332916	1054.838081	-558.562601	805.8964109999999	1013.358732	-607.9683219999999	
85	0.8	799.95138	934.35731	-495.09536	761.082959	967.745509	-244.430436	624.119371	981.378764	-446.506615	607.826903	989.250227	-360.045389	751.513536	789.494383	-208.103616	842.8788520000001	687.430035	-232.502474	795.093172	549.947142	-243.4592	777.256708	792.3853	-536.776579	848.682516	690.188632	-526.827847	807.895342	552.195249	-535.500251	835.585314	345.827651	-314.806967	775.350891	296.738203	-262.948239	739.298814	193.097165	-337.750625	711.897741	458.572523	-451.031061	634.720512	532.36769	-511.696514	555.416509	561.365036	-439.392096	571.433992	105.501385	-339.209209	788.389813	61.023722	-342.291514	753.533282	63.246124	-252.359089	488.210761	713.745281	-457.177711	395.692933	519.122241	-422.447194	380.52154	541.453092	-511.054919	825.660844	1399.116535	-544.456563	776.316527	1386.279579	-171.190625	896.629516	1335.516267	-319.983319	783.001894	1449.574299	-359.323048	734.501964	1284.470924	-106.076567	754.576404	1221.403753	-87.036601	649.433608	1203.73554	-79.17519	674.185211	1140.41875	-15.861855	646.745795	1087.380308	-82.11482100000001	772.761748	1348.319958	-602.117175	688.649515	1313.474365	-585.893548	726.812085	1277.053391	-645.522025	664.610861	1196.755455	-695.460312	601.811365	1173.66267	-635.469232	758.2626330000001	1140.194723	-16.479673	919.1124600000001	1129.989334	-63.311469	897.2121550000001	1070.673404	-32.636605	724.21659	1156.248059	-674.729509	820.3560220000001	1049.725956	-563.410076	795.987946	1014.340149	-616.624037	
86	0.808333	799.0103329999999	937.515359	-495.040266	758.500629	968.230604	-242.387272	622.454475	982.91228	-444.429943	606.896384	991.543739	-358.494703	740.2233629999999	786.981052	-207.700264	827.328293	680.059336	-230.756528	771.982353	545.544004	-242.778009	780.150564	796.298463	-536.6539739999999	863.845693	701.274792	-524.10879	833.134594	561.246808	-534.724071	802.323348	338.391788	-315.53366	741.014368	291.15838	-263.172621	700.157266	190.220972	-337.834015	742.378421	461.957888	-448.509828	661.357858	529.083387	-511.423502	578.971279	553.531508	-439.86263	529.744687	106.395695	-339.238097	745.782727	59.958299	-339.886417	711.2531729999999	63.176954	-251.731395	498.796011	701.063235	-461.471942	424.350529	499.509038	-423.153326	408.894953	518.2123350000001	-512.773704	819.528703	1402.217595	-544.6802269999999	780.301082	1387.130783	-171.572623	897.021612	1337.339799	-322.689585	782.460078	1450.92307	-359.286011	742.424682	1282.07635	-108.56132	764.9603069999999	1219.77065	-91.266614	661.213665	1196.017896	-84.282498	690.440004	1132.824933	-21.141851	665.465877	1080.086628	-88.433628	763.698812	1352.319383	-600.8138290000001	680.383784	1316.395939	-580.613887	715.315242	1281.945288	-642.808046	651.5311400000001	1202.687603	-690.9179329999999	591.534633	1177.138197	-628.4681869999999	774.995903	1137.047961	-24.013937	934.761791	1138.734456	-77.06655600000001	917.767802	1077.480431	-47.353995	711.983908	1161.436345	-673.720051	811.514242	1049.354968	-568.5263660000001	787.160114	1019.502169	-624.530453	
